<svg width="40" height="40" viewBox="0 0 40 40" fill="none" xmlns="http://www.w3.org/2000/svg">
<path d="M33.62 11.2496H30.5183L22.9083 18.8563C23.1704 19.5242 23.1945 20.2621 22.9766 20.9458C22.7586 21.6294 22.3119 22.2172 21.7115 22.6102C21.1112 23.0033 20.3938 23.1776 19.6801 23.1039C18.9663 23.0302 18.2996 22.713 17.7922 22.2056C17.2849 21.6982 16.9676 21.0316 16.894 20.3178C16.8203 19.6041 16.9946 18.8867 17.3876 18.2863C17.7807 17.686 18.3685 17.2393 19.0521 17.0213C19.7358 16.8034 20.4736 16.8275 21.1416 17.0896L28.75 9.48125V6.37959C28.7501 5.96455 28.915 5.56654 29.2083 5.27292L32.0916 2.38959C32.145 2.33588 32.212 2.29773 32.2854 2.27923C32.3588 2.26073 32.4359 2.26258 32.5083 2.28459C32.6566 2.32792 32.7666 2.45125 32.7966 2.60292L33.5633 6.43792L37.3966 7.20459C37.5466 7.23459 37.67 7.34459 37.7133 7.49292C37.7352 7.56497 37.7371 7.64161 37.7189 7.71469C37.7007 7.78776 37.6631 7.85454 37.61 7.90792L34.725 10.7913C34.4318 11.0842 34.0344 11.249 33.62 11.2496Z" fill="black"/>
<path d="M4.375 20C4.375 24.144 6.0212 28.1183 8.95146 31.0486C11.8817 33.9788 15.856 35.625 20 35.625C22.0519 35.625 24.0837 35.2209 25.9794 34.4356C27.8751 33.6504 29.5976 32.4995 31.0485 31.0486C32.4995 29.5976 33.6504 27.8751 34.4356 25.9794C35.2208 24.0837 35.625 22.0519 35.625 20C35.625 18.5033 35.415 17.0567 35.0233 15.6883C34.9455 15.3742 34.9925 15.042 35.1546 14.7618C35.3167 14.4816 35.5811 14.2752 35.8922 14.1861C36.2034 14.0969 36.537 14.1319 36.8229 14.2837C37.1088 14.4355 37.3246 14.6923 37.425 15C37.8817 16.59 38.125 18.2667 38.125 20C38.125 30.01 30.01 38.125 20 38.125C9.99 38.125 1.875 30.01 1.875 20C1.875 9.99001 9.99 1.87501 20 1.87501C21.6917 1.87334 23.3733 2.10834 25 2.57334C25.1586 2.61783 25.3069 2.69323 25.4362 2.79521C25.5656 2.89718 25.6735 3.02372 25.7538 3.16755C25.8341 3.31138 25.8852 3.46967 25.9041 3.6333C25.923 3.79694 25.9094 3.9627 25.8641 4.12106C25.8187 4.27942 25.7425 4.42725 25.6398 4.55606C25.5372 4.68487 25.41 4.79211 25.2658 4.87162C25.1215 4.95114 24.9629 5.00135 24.7992 5.01938C24.6355 5.03741 24.4698 5.02289 24.3117 4.97668C22.9094 4.57644 21.4582 4.37393 20 4.37501C15.856 4.37501 11.8817 6.02121 8.95146 8.95147C6.0212 11.8817 4.375 15.856 4.375 20Z" fill="black"/>
<path d="M11.8749 19.9997C11.8795 21.1035 12.1091 22.1949 12.5496 23.207C12.9901 24.2192 13.6323 25.131 14.437 25.8867C15.2416 26.6424 16.1919 27.2262 17.2296 27.6024C18.2674 27.9786 19.371 28.1394 20.473 28.0749C21.575 28.0103 22.6523 27.7219 23.6391 27.2271C24.6259 26.7323 25.5015 26.0416 26.2124 25.1972C26.9234 24.3527 27.4547 23.3722 27.7741 22.3155C28.0935 21.2589 28.1941 20.1482 28.0699 19.0513C28.0349 18.8292 28.0606 18.6017 28.1444 18.393C28.2282 18.1843 28.3668 18.0021 28.5457 17.8658C28.7245 17.7295 28.9369 17.6441 29.1604 17.6186C29.3838 17.5932 29.61 17.6287 29.8149 17.7213C30.2332 17.908 30.5149 18.3063 30.5516 18.763C30.8103 20.9551 30.3798 23.1733 29.3197 25.1094C28.2596 27.0455 26.6227 28.6032 24.6365 29.5661C22.6503 30.5289 20.4134 30.8491 18.2369 30.482C16.0603 30.115 14.0522 29.079 12.4916 27.518C10.9314 25.9587 9.89511 23.9525 9.52644 21.7778C9.15777 19.603 9.47499 17.3674 10.4341 15.3811C11.3932 13.3947 12.9467 11.756 14.879 10.6923C16.8114 9.62857 19.0269 9.19254 21.2182 9.44465C21.3839 9.46002 21.5448 9.50831 21.6916 9.58668C21.8383 9.66505 21.968 9.77192 22.0729 9.90104C22.1778 10.0302 22.2559 10.1789 22.3025 10.3386C22.3492 10.4983 22.3635 10.6657 22.3447 10.831C22.3258 10.9963 22.2742 11.1562 22.1927 11.3012C22.1113 11.4463 22.0017 11.5737 21.8704 11.6758C21.7391 11.778 21.5887 11.8529 21.4281 11.8962C21.2674 11.9395 21.0998 11.9503 20.9349 11.928C19.7966 11.7964 18.6434 11.907 17.5508 12.2525C16.4583 12.5981 15.4512 13.1708 14.5956 13.933C13.7401 14.6953 13.0554 15.6298 12.5865 16.6754C12.1176 17.7209 11.8751 18.8538 11.8749 19.9997Z" fill="black"/>
</svg>
